<?xml version="1.0" encoding="UTF-8"?>
<svg id="Calque_2" xmlns="http://www.w3.org/2000/svg" viewBox="0 0 303.83 314.14">
  <defs>
    <style>
      .cls-1 {
        fill: #2e66ee;
      }
    </style>
  </defs>
  <g id="Calque_2-2" data-name="Calque_2">
    <g>
      <path class="cls-1" d="M0,86.12s155.59-129.17,271.54-9.54l-5.14,9.54h37.43c-6.88-13.07-20.05-33.97-43.3-52.11C216.79-.1,168.41-.2,150.06.03c-17.54.22-64.07,1.48-106.76,34.72C20.42,52.57,7.15,72.94,0,86.12Z"/>
      <path class="cls-1" d="M303.83,228.02s-155.59,129.17-271.54,9.54l5.14-9.54H0c6.88,13.07,20.05,33.97,43.3,52.11,43.75,34.12,92.12,34.21,110.48,33.98,17.54-.22,64.07-1.48,106.76-34.72,22.88-17.82,36.15-38.19,43.3-51.37Z"/>
      <path d="M219.99,71.64c-20.48,16.66-46.83,35.37-79.29,52.64-35.89,19.11-69.22,31.13-96.43,38.88-.67-9.3-.11-18.56,1.58-27.6,22.6-5.84,51.16-15.43,82.07-31.73,28.94-15.26,51.78-32.1,68.82-46.6,8.28,3.77,16.11,8.6,23.26,14.41Z"/>
      <path d="M171.78,49.33c-11.07,11.29-28.01,26.09-51.54,38.76-26.11,14.05-50.16,20.01-66.59,22.73,9.69-21.4,26.4-39.8,48.91-51.38,22.18-11.41,46.47-14.39,69.22-10.11Z"/>
      <path d="M247.03,104.48c-24.52,18.48-54.85,38.64-91.12,57.57-36.62,19.12-70.82,32.57-100.21,42.15-3.81-7.49-6.65-15.2-8.57-23.03,27.53-8.34,60-20.44,94.87-38.32,37.2-19.07,67.56-39.8,91.28-58.36,5.23,6,9.86,12.67,13.75,19.98Z"/>
      <path d="M253.37,118.63c3.03,8.32,4.97,16.83,5.88,25.35h0c-23.77,17.74-53.11,37.02-88.12,55.05-32.66,16.83-63.26,28.97-89.98,37.84-6.56-5.7-12.5-12.26-17.64-19.62,27.4-7.61,60.5-19.23,96.2-37.39,39.15-19.92,70.27-42.03,93.67-61.24Z"/>
      <path d="M259.79,158.41c-.33,11.56-2.52,22.97-6.44,33.76-14.47,12.16-33.33,25.92-56.78,38.59-27.15,14.66-52.35,23.45-72.47,28.88-11.22-3-21.94-7.8-31.69-14.24,24.61-7.58,53.37-18.42,84.2-34.16,33.78-17.24,61.45-35.98,83.19-52.83Z"/>
      <path d="M247.86,204.76c-9.93,19.34-25.78,35.87-46.58,46.58-20.51,10.55-42.82,13.89-64.05,10.95,15.3-2.53,37.65-8.03,61.96-21.03,22.28-11.91,38.28-25.89,48.67-36.49Z"/>
    </g>
  </g>
</svg>